# xmcd CD database file
#
# Track frame offsets:
#	150
#	15580
#	31375
#	50607
#	67422
#	77135
#	92485
#	97212
#	112635
#	129920
#
# Disc length: 1984 seconds
#
# Revision: 0
# Processed by: cddbd v1.5.1PL0 Copyright (c) Steve Scherf et al.
# Submitted via: CDex 1.51
#
DISCID=7c07be0a
DTITLE=Pages - Pages
DYEAR=1978
DGENRE=Weastcoast/AOR
TTITLE0=Clearly Kim
TTITLE1=This Is For The Girl
TTITLE2=Let It Go
TTITLE3=Listen For The Love
TTITLE4=Love Dance
TTITLE5=If I Saw You Again
TTITLE6=Interlude
TTITLE7=It's Alright
TTITLE8=Room At The Top
TTITLE9=I Get It From You
EXTD=YEAR: 1978
EXTT0=
EXTT1=
EXTT2=
EXTT3=
EXTT4=
EXTT5=
EXTT6=
EXTT7=
EXTT8=
EXTT9=
PLAYORDER=
